<svg width="18" height="14" viewBox="0 0 18 14" fill="none" xmlns="http://www.w3.org/2000/svg">
<g id="Frame">
<g clip-path="url(#clip0_434_5946)">
<path id="Vector" d="M9 0C9.48398 0 9.875 0.391016 9.875 0.875V6.5625C9.875 6.80312 10.0719 7 10.3125 7C10.5531 7 10.75 6.80312 10.75 6.5625V1.75C10.75 1.26602 11.141 0.875 11.625 0.875C12.109 0.875 12.5 1.26602 12.5 1.75V6.5625C12.5 6.80312 12.6969 7 12.9375 7C13.1781 7 13.375 6.80312 13.375 6.5625V3.5C13.375 3.01602 13.766 2.625 14.25 2.625C14.734 2.625 15.125 3.01602 15.125 3.5V8.83477C14.7996 8.96602 14.5426 9.24219 14.4414 9.59492L14.198 10.448L13.3449 10.6914C12.8445 10.8363 12.5 11.293 12.5 11.8125C12.5 12.3293 12.8418 12.7859 13.3367 12.9309C12.5109 13.6008 11.4582 14 10.3125 14H9.7875C8.15781 14 6.59102 13.3738 5.4125 12.25L2.33906 9.32422C1.90156 8.90859 1.88516 8.21406 2.30078 7.77656C2.71641 7.33906 3.41094 7.32266 3.84844 7.73828L5.50273 9.31328C5.50273 9.27227 5.5 9.22852 5.5 9.1875V1.75C5.5 1.26602 5.89102 0.875 6.375 0.875C6.85898 0.875 7.25 1.26602 7.25 1.75V6.5625C7.25 6.80312 7.44688 7 7.6875 7C7.92812 7 8.125 6.80312 8.125 6.5625V0.875C8.125 0.391016 8.51602 0 9 0ZM8.80039 8.93047C8.77031 8.82383 8.67188 8.75 8.5625 8.75C8.45312 8.75 8.35469 8.82383 8.32461 8.93047L8.125 9.625L7.43047 9.82461C7.32383 9.85469 7.25 9.95312 7.25 10.0625C7.25 10.1719 7.32383 10.2703 7.43047 10.3004L8.125 10.5L8.32461 11.1945C8.35469 11.3012 8.45312 11.375 8.5625 11.375C8.67188 11.375 8.77031 11.3012 8.80039 11.1945L9 10.5L9.69453 10.3004C9.80117 10.2703 9.875 10.1719 9.875 10.0625C9.875 9.95312 9.80117 9.85469 9.69453 9.82461L9 9.625L8.80039 8.93047ZM3.09375 3.28125L4.41445 3.65859C4.54023 3.69414 4.625 3.80898 4.625 3.9375C4.625 4.06602 4.54023 4.18086 4.41445 4.21641L3.09375 4.59375L2.71641 5.91445C2.68086 6.04023 2.56602 6.125 2.4375 6.125C2.30898 6.125 2.19414 6.04023 2.15859 5.91445L1.78125 4.59375L0.460547 4.21641C0.334766 4.18086 0.25 4.06602 0.25 3.9375C0.25 3.80898 0.334766 3.69414 0.460547 3.65859L1.78125 3.28125L2.15859 1.96055C2.19414 1.83477 2.30898 1.75 2.4375 1.75C2.56602 1.75 2.68086 1.83477 2.71641 1.96055L3.09375 3.28125ZM16.2188 11.1562L17.5395 11.5336C17.6652 11.5691 17.75 11.684 17.75 11.8125C17.75 11.941 17.6652 12.0559 17.5395 12.0914L16.2188 12.4688L15.8414 13.7895C15.8059 13.9152 15.691 14 15.5625 14C15.434 14 15.3191 13.9152 15.2836 13.7895L14.9062 12.4688L13.5855 12.0914C13.4598 12.0559 13.375 11.941 13.375 11.8125C13.375 11.684 13.4598 11.5691 13.5855 11.5336L14.9062 11.1562L15.2836 9.83555C15.3191 9.70977 15.434 9.625 15.5625 9.625C15.691 9.625 15.8059 9.70977 15.8414 9.83555L16.2188 11.1562Z" fill="#22C55E"/>
</g>
</g>
<defs>
<clipPath id="clip0_434_5946">
<path d="M0.25 0H17.75V14H0.25V0Z" fill="white"/>
</clipPath>
</defs>
</svg>
