<svg width="14" height="14" viewBox="0 0 14 14" fill="none" xmlns="http://www.w3.org/2000/svg">
<g id="Frame">
<g clip-path="url(#clip0_434_5938)">
<path id="Vector" d="M7.875 2.625C7.875 2.14102 8.26602 1.75 8.75 1.75C9.23398 1.75 9.625 2.14102 9.625 2.625C9.625 3.10898 10.016 3.5 10.5 3.5C10.984 3.5 11.375 3.10898 11.375 2.625C11.375 1.17578 10.1992 0 8.75 0C7.30078 0 6.125 1.17578 6.125 2.625V7.875H4.375V7.21875C4.375 6.37383 3.68867 5.6875 2.84375 5.6875H1.53125C1.16758 5.6875 0.875 5.98008 0.875 6.34375C0.875 6.70742 1.16758 7 1.53125 7H2.84375C2.96406 7 3.0625 7.09844 3.0625 7.21875V7.875H0.875C0.391016 7.875 0 8.26602 0 8.75C0 9.23398 0.391016 9.625 0.875 9.625H7H13.125C13.609 9.625 14 9.23398 14 8.75C14 8.26602 13.609 7.875 13.125 7.875H10.9375V7.21875C10.9375 7.09844 11.0359 7 11.1562 7H12.6875C13.0512 7 13.3438 6.70742 13.3438 6.34375C13.3438 5.98008 13.0512 5.6875 12.6875 5.6875H11.1562C10.3113 5.6875 9.625 6.37383 9.625 7.21875V7.875H7.875V2.625ZM13.125 11.375V10.5H0.875V11.375C0.875 12.8242 2.05078 14 3.5 14H10.5C11.9492 14 13.125 12.8242 13.125 11.375Z" fill="#3B82F6"/>
</g>
</g>
<defs>
<clipPath id="clip0_434_5938">
<path d="M0 0H14V14H0V0Z" fill="white"/>
</clipPath>
</defs>
</svg>
