<svg width="16" height="16" viewBox="0 0 16 16" fill="none" xmlns="http://www.w3.org/2000/svg">
<g id="Frame">
<g clip-path="url(#clip0_434_6494)">
<path id="Vector" d="M8.0008 1C8.44455 1 8.85392 1.23437 9.07893 1.61875L15.8289 13.1187C16.0571 13.5062 16.0571 13.9844 15.8352 14.3719C15.6133 14.7594 15.1977 15 14.7508 15H1.2508C0.803925 15 0.3883 14.7594 0.166425 14.3719C-0.0554503 13.9844 -0.0523253 13.5031 0.172675 13.1187L6.92267 1.61875C7.14767 1.23437 7.55705 1 8.0008 1ZM8.0008 5C7.58517 5 7.2508 5.33437 7.2508 5.75V9.25C7.2508 9.66562 7.58517 10 8.0008 10C8.41642 10 8.7508 9.66562 8.7508 9.25V5.75C8.7508 5.33437 8.41642 5 8.0008 5ZM9.0008 12C9.0008 11.7348 8.89544 11.4804 8.70791 11.2929C8.52037 11.1054 8.26602 11 8.0008 11C7.73558 11 7.48123 11.1054 7.29369 11.2929C7.10616 11.4804 7.0008 11.7348 7.0008 12C7.0008 12.2652 7.10616 12.5196 7.29369 12.7071C7.48123 12.8946 7.73558 13 8.0008 13C8.26602 13 8.52037 12.8946 8.70791 12.7071C8.89544 12.5196 9.0008 12.2652 9.0008 12Z" fill="#EAB308"/>
</g>
</g>
<defs>
<clipPath id="clip0_434_6494">
<path d="M0 0H16V16H0V0Z" fill="white"/>
</clipPath>
</defs>
</svg>
