<svg width="18" height="16" viewBox="0 0 18 16" fill="none" xmlns="http://www.w3.org/2000/svg">
<g id="Frame">
<path d="M0 0H18V16H0V0Z" stroke="#E5E7EB"/>
<path id="Vector" d="M8.4219 2.18434C8.76877 1.93746 9.23127 1.93746 9.57815 2.18434C10.2813 2.66871 11.1406 2.99996 12 2.99996C12.8406 2.99996 13.7313 2.66246 14.4188 2.18434C14.7906 1.91871 15.2969 1.94059 15.6438 2.23746C16.0938 2.60934 16.6594 2.89371 17.225 3.02496C17.7625 3.14996 18.0969 3.68746 17.9719 4.22496C17.8469 4.76246 17.3094 5.09684 16.7719 4.97184C16.0063 4.79371 15.3688 4.45621 14.9531 4.19059C14.0469 4.67809 13.0313 4.99996 12 4.99996C11.0031 4.99996 10.1063 4.69059 9.48752 4.40934C9.30627 4.32496 9.14065 4.24371 9.00002 4.16871C8.8594 4.24371 8.6969 4.32809 8.51252 4.40934C7.89377 4.69059 6.9969 4.99996 6.00002 4.99996C4.96877 4.99996 3.95315 4.67809 3.0469 4.19371C2.62815 4.45621 1.99377 4.79684 1.22815 4.97496C0.690648 5.09996 0.153148 4.76559 0.0281485 4.22809C-0.0968515 3.69059 0.237523 3.15309 0.775023 3.02809C1.33752 2.89371 1.90627 2.60934 2.35315 2.23746C2.70002 1.94059 3.20627 1.92184 3.57815 2.18434C4.2719 2.66246 5.1594 2.99996 6.00002 2.99996C6.8594 2.99996 7.71877 2.66871 8.4219 2.18434ZM9.57815 11.1843C10.2813 11.6687 11.1406 12 12 12C12.8406 12 13.7313 11.6625 14.4188 11.1843C14.7906 10.9187 15.2969 10.9406 15.6438 11.2375C16.0938 11.6093 16.6594 11.8937 17.225 12.025C17.7625 12.15 18.0969 12.6875 17.9719 13.225C17.8469 13.7625 17.3094 14.0968 16.7719 13.9718C16.0063 13.7937 15.3688 13.4562 14.9531 13.1906C14.0469 13.6781 13.0313 14 12 14C11.0031 14 10.1063 13.6906 9.48752 13.4093C9.30627 13.325 9.14065 13.2437 9.00002 13.1687C8.8594 13.2437 8.6969 13.3281 8.51252 13.4093C7.89377 13.6906 6.9969 14 6.00002 14C4.96877 14 3.95315 13.6781 3.0469 13.1937C2.62815 13.4562 1.99377 13.7968 1.22815 13.975C0.690648 14.1 0.153148 13.7656 0.0281485 13.2281C-0.0968515 12.6906 0.237523 12.1531 0.775023 12.0281C1.34065 11.8968 1.90627 11.6125 2.35627 11.2406C2.70315 10.9468 3.2094 10.925 3.58127 11.1875C4.2719 11.6625 5.1594 12 6.00002 12C6.8594 12 7.71877 11.6687 8.4219 11.1843C8.76877 10.9375 9.23127 10.9375 9.57815 11.1843ZM9.57815 6.68434C10.2813 7.16871 11.1406 7.49996 12 7.49996C12.8406 7.49996 13.7313 7.16246 14.4188 6.68434C14.7906 6.41871 15.2969 6.44059 15.6438 6.73746C16.0938 7.10934 16.6594 7.39371 17.225 7.52496C17.7625 7.64996 18.0969 8.18746 17.9719 8.72496C17.8469 9.26246 17.3094 9.59684 16.7719 9.47184C16.0063 9.29371 15.3688 8.95621 14.9531 8.69059C14.0469 9.17809 13.0313 9.49996 12 9.49996C11.0031 9.49996 10.1063 9.19059 9.48752 8.90934C9.30627 8.82496 9.14065 8.74371 9.00002 8.66871C8.8594 8.74371 8.6969 8.82809 8.51252 8.90934C7.89377 9.19059 6.9969 9.49996 6.00002 9.49996C4.96877 9.49996 3.95315 9.17809 3.0469 8.69371C2.62815 8.95621 1.99377 9.29684 1.22815 9.47496C0.690648 9.59996 0.153148 9.26558 0.0281485 8.72809C-0.0968515 8.19059 0.237523 7.65309 0.775023 7.52809C1.34065 7.39684 1.90627 7.11246 2.35627 6.74059C2.70315 6.44371 3.2094 6.42496 3.58127 6.68746C4.2719 7.16246 5.1594 7.49996 6.00002 7.49996C6.8594 7.49996 7.71877 7.16871 8.4219 6.68434C8.76877 6.43746 9.23127 6.43746 9.57815 6.68434Z" fill="#2563EB"/>
</g>
</svg>
