<svg width="16" height="16" viewBox="0 0 16 16" fill="none" xmlns="http://www.w3.org/2000/svg">
<g id="Frame">
<path d="M0 0H16V16H0V0Z" stroke="#E5E7EB"/>
<path id="Vector" d="M6 3V3.375L3 3C2.44688 3 2 3.44687 2 4C2 4.55312 2.44688 5 3 5L6 4.625L6.96875 4.50313L7 4.5L7.03125 4.50313L8 4.625L11 5C11.5531 5 12 4.55312 12 4C12 3.44687 11.5531 3 11 3L8 3.375V3C8 2.44687 7.55312 2 7 2C6.44688 2 6 2.44687 6 3ZM1 8C0.446875 8 0 8.44688 0 9V11C0 11.5531 0.446875 12 1 12H4.12813C4.75938 12.9062 5.8125 13.5 7 13.5C8.1875 13.5 9.24062 12.9062 9.87187 12H11C11.5531 12 12 12.4469 12 13C12 13.5531 12.4469 14 13 14H15C15.5531 14 16 13.5531 16 13C16 10.2375 13.7625 8 11 8H10L9.29375 7.29375C9.10625 7.10625 8.85312 7 8.5875 7H8V5.63125L7 5.50625L6 5.63125V7H5.41563C5.15 7 4.89687 7.10625 4.70937 7.29375L4 8H1Z" fill="#2563EB"/>
</g>
</svg>
